<?xml version="1.0" encoding="utf-8"?>
<!-- Generator: Adobe Illustrator 16.0.0, SVG Export Plug-In . SVG Version: 6.00 Build 0)  -->
<!DOCTYPE svg PUBLIC "-//W3C//DTD SVG 1.1//EN" "http://www.w3.org/Graphics/SVG/1.1/DTD/svg11.dtd">
<svg version="1.1" id="Layer_1" xmlns="http://www.w3.org/2000/svg" xmlns:xlink="http://www.w3.org/1999/xlink" x="0px" y="0px"
	 width="50px" height="50px" viewBox="0 0 50 50" enable-background="new 0 0 50 50" xml:space="preserve">
<path fill="#F6F6F6" d="M26.125,1C13.026,1,6.42,10.392,6.42,18.222c0,4.744,1.795,8.963,5.647,10.536
	c0.63,0.257,1.196,0.009,1.378-0.692c0.129-0.482,0.43-1.701,0.565-2.212c0.184-0.691,0.113-0.933-0.396-1.538
	c-1.112-1.308-1.821-3.002-1.821-5.404c0-6.971,5.213-13.205,13.575-13.205c7.404,0,11.472,4.523,11.472,10.563
	c0,7.952-3.52,14.66-8.742,14.66c-2.882,0-5.043-2.384-4.352-5.311c0.83-3.495,2.436-7.263,2.436-9.783
	c0-2.257-1.212-4.142-3.719-4.142c-2.949,0-5.318,3.052-5.318,7.137c0,2.604,0.881,4.364,0.881,4.364s-3.017,12.785-3.547,15.023
	c-1.052,4.461-0.158,9.926-0.082,10.479c0.043,0.325,0.465,0.403,0.654,0.156c0.272-0.354,3.784-4.69,4.979-9.023
	c0.335-1.226,1.938-7.577,1.938-7.577c0.958,1.828,3.758,3.438,6.736,3.438c8.863,0,14.877-8.084,14.877-18.898
	C43.58,8.617,36.652,1,26.125,1z"/>
</svg>
