<?xml version="1.0" encoding="utf-8"?>
<!-- Generator: Adobe Illustrator 16.0.0, SVG Export Plug-In . SVG Version: 6.00 Build 0)  -->
<!DOCTYPE svg PUBLIC "-//W3C//DTD SVG 1.1//EN" "http://www.w3.org/Graphics/SVG/1.1/DTD/svg11.dtd">
<svg version="1.1" id="Layer_1" xmlns="http://www.w3.org/2000/svg" xmlns:xlink="http://www.w3.org/1999/xlink" x="0px" y="0px"
	 width="50px" height="50px" viewBox="0 0 50 50" enable-background="new 0 0 50 50" xml:space="preserve">
<path fill="#F6F6F6" d="M47.674,6.214c-1.901,1.13-4.011,1.95-6.254,2.391c-1.795-1.915-4.354-3.108-7.188-3.108
	c-5.438,0-9.847,4.406-9.847,9.847c0,0.769,0.087,1.523,0.253,2.243c-8.182-0.41-15.438-4.332-20.297-10.289
	c-0.846,1.455-1.331,3.145-1.331,4.949c0,3.418,1.737,6.432,4.378,8.199c-1.612-0.052-3.131-0.495-4.46-1.23
	c0,0.037,0,0.082,0,0.119c0,4.774,3.394,8.754,7.901,9.656c-0.828,0.228-1.697,0.35-2.598,0.35c-0.633,0-1.249-0.063-1.852-0.176
	c1.252,3.909,4.892,6.757,9.199,6.834c-3.37,2.644-7.614,4.219-12.229,4.219c-0.794,0-1.579-0.047-2.351-0.141
	c4.359,2.799,9.534,4.428,15.096,4.428c18.115,0,28.02-15.007,28.02-28.02c0-0.427-0.009-0.854-0.027-1.275
	c1.922-1.388,3.595-3.122,4.912-5.098c-1.765,0.785-3.663,1.312-5.655,1.552C45.377,10.444,46.939,8.516,47.674,6.214z"/>
</svg>
